HIERARCHY
ROOT Hips
{
	OFFSET 0.000000 0.000000 0.000000
	CHANNELS 6 Xposition Yposition Zposition Xrotation Yrotation Zrotation
	JOINT LeftUpLeg_virtual
	{
		OFFSET 0.000000 0.000000 0.000000
		CHANNELS 3 Xrotation Yrotation Zrotation
		JOINT LeftUpLeg
		{
			OFFSET 15.427100 -6.655098 0.678600
			CHANNELS 3 Xrotation Yrotation Zrotation
			JOINT LeftLeg
			{
				OFFSET 4.081073 -39.591068 13.024000
				CHANNELS 3 Xrotation Yrotation Zrotation
				JOINT LeftFoot
				{
					OFFSET -4.081074 -37.707932 -15.979700
					CHANNELS 3 Xrotation Yrotation Zrotation
					JOINT LeftToeBase
					{
						OFFSET 5.346399 -15.068900 20.645000
						CHANNELS 3 Xrotation Yrotation Zrotation
						JOINT LeftToe_End
						{
							OFFSET 2.754700 0.931300 11.300900
							CHANNELS 3 Xrotation Yrotation Zrotation
							End Site
							{
								OFFSET 0 0 0
							}
						}
					}
				}
			}
		}
	}
	JOINT RightUpLeg_virtual
	{
		OFFSET 0.000000 0.000000 0.000000
		CHANNELS 3 Xrotation Yrotation Zrotation
		JOINT RightUpLeg
		{
			OFFSET -15.569500 -6.655098 0.678600
			CHANNELS 3 Xrotation Yrotation Zrotation
			JOINT RightLeg
			{
				OFFSET -4.081825 -39.591045 13.023800
				CHANNELS 3 Xrotation Yrotation Zrotation
				JOINT RightFoot
				{
					OFFSET 4.081824 -37.707954 -15.979600
					CHANNELS 3 Xrotation Yrotation Zrotation
					JOINT RightToeBase
					{
						OFFSET -5.346400 -15.068900 20.645000
						CHANNELS 3 Xrotation Yrotation Zrotation
						JOINT RightToe_End
						{
							OFFSET -2.754700 0.931300 11.300900
							CHANNELS 3 Xrotation Yrotation Zrotation
							End Site
							{
								OFFSET 0 0 0
							}
						}
					}
				}
			}
		}
	}
	JOINT Spine_virtual
	{
		OFFSET 0.000000 0.000000 0.000000
		CHANNELS 3 Xrotation Yrotation Zrotation
		JOINT Spine
		{
			OFFSET -0.279200 12.230698 -2.892100
			CHANNELS 3 Xrotation Yrotation Zrotation
			JOINT Spine1
			{
				OFFSET -0.232667 10.192268 -1.242267
				CHANNELS 3 Xrotation Yrotation Zrotation
				JOINT Spine1_split
				{
					OFFSET -0.232667 10.192268 -1.242267
					CHANNELS 3 Xrotation Yrotation Zrotation
					JOINT Spine2
					{
						OFFSET -0.232667 10.192268 -1.242267
						CHANNELS 3 Xrotation Yrotation Zrotation
						JOINT Neck_virtual
						{
							OFFSET 0.000000 0.000000 0.000000
							CHANNELS 3 Xrotation Yrotation Zrotation
							JOINT Neck
							{
								OFFSET -0.418800 17.814194 8.416900
								CHANNELS 3 Xrotation Yrotation Zrotation
								JOINT Head
								{
									OFFSET 0.000000 7.031097 3.806800
									CHANNELS 3 Xrotation Yrotation Zrotation
									JOINT HeadTop_End
									{
										OFFSET 0.000000 24.646606 12.978600
										CHANNELS 3 Xrotation Yrotation Zrotation
										End Site
										{
											OFFSET 0 0 0
										}
									}
								}
							}
						}
						JOINT LeftShoulder_virtual
						{
							OFFSET 0.000000 0.000000 0.000000
							CHANNELS 3 Xrotation Yrotation Zrotation
							JOINT LeftShoulder
							{
								OFFSET 8.476499 7.247704 -3.868750
								CHANNELS 3 Xrotation Yrotation Zrotation
								JOINT LeftShoulder_split
								{
									OFFSET 8.476499 7.247704 -3.868750
									CHANNELS 3 Xrotation Yrotation Zrotation
									JOINT LeftArm
									{
										OFFSET 9.308998 -2.777710 0.208600
										CHANNELS 3 Xrotation Yrotation Zrotation
										JOINT LeftForeArm
										{
											OFFSET 29.972298 0.000000 0.000000
											CHANNELS 3 Xrotation Yrotation Zrotation
											JOINT LeftHand
											{
												OFFSET 26.026505 0.000000 0.000000
												CHANNELS 3 Xrotation Yrotation Zrotation
												End Site
												{
													OFFSET 0 0 0
												}
											}
										}
									}
								}
							}
						}
						JOINT RightShoulder_virtual
						{
							OFFSET 0.000000 0.000000 0.000000
							CHANNELS 3 Xrotation Yrotation Zrotation
							JOINT RightShoulder
							{
								OFFSET -7.570500 7.247704 -3.868750
								CHANNELS 3 Xrotation Yrotation Zrotation
								JOINT RightShoulder_split
								{
									OFFSET -7.570500 7.247704 -3.868750
									CHANNELS 3 Xrotation Yrotation Zrotation
									JOINT RightArm
									{
										OFFSET -9.308998 -2.777710 0.208500
										CHANNELS 3 Xrotation Yrotation Zrotation
										JOINT RightForeArm
										{
											OFFSET -29.972300 0.000000 0.000000
											CHANNELS 3 Xrotation Yrotation Zrotation
											JOINT RightHand
											{
												OFFSET -26.026505 0.000000 0.000000
												CHANNELS 3 Xrotation Yrotation Zrotation
												End Site
												{
													OFFSET 0 0 0
												}
											}
										}
									}
								}
							}
						}
					}
				}
			}
		}
	}
}
MOTION
Frames: 4
Frame Time: 0.03333333
14.230538 38.963356 -4.804142 0.000000 0.000000 0.000000 0.984049 -32.129835 7.169363 -82.692458 -16.042434 50.475894 65.874825 9.347886 -4.525481 40.696098 -1.973379 -4.894157 -1.183530 -0.002739 -1.073748 0.000000 0.000000 0.000000 -2.862262 -28.057317 6.730247 10.467501 0.293246 -25.505197 90.158975 19.399124 4.657356 3.468550 5.028898 21.604670 35.858869 -0.058337 -8.726075 0.000000 0.000000 0.000000 -1.881586 -32.473496 6.150831 3.792051 -5.789682 -2.938292 2.334683 -4.034922 -2.142495 0.896529 0.485724 0.125618 0.000000 0.000000 0.000000 1.907849 -4.434591 -2.062931 0.525224 1.944431 2.107342 2.179105 14.811183 5.078305 0.000000 0.000000 0.000000 1.773321 -4.125881 -2.232896 1.437520 1.336560 -1.817999 -4.494451 0.933866 -0.878549 -0.242041 -14.929743 -48.702008 178.366825 -86.521708 178.907052 0.000000 0.000000 0.000000 3.013223 -4.125164 -2.354070 5.416856 17.246279 3.839373 -0.995542 4.925520 -0.732273 -31.856682 -12.938319 45.559879 -179.636284 82.967203 179.222661 0.000000 0.000000 0.000000 
14.193006 38.976002 -4.758442 0.000000 0.000000 0.000000 1.108661 -32.099126 7.255128 -82.625809 -15.936496 50.617176 65.866765 9.454925 -4.749404 40.680333 -1.933017 -4.809922 -1.193215 0.012564 -1.113732 0.000000 0.000000 0.000000 -2.724529 -28.055021 6.810661 10.254969 0.358482 -25.468292 90.243547 19.359333 4.577298 3.534300 4.996532 21.623493 36.186848 -0.058378 -8.576634 0.000000 0.000000 0.000000 -1.736753 -32.411136 6.218463 3.729092 -5.702895 -3.162675 2.371133 -3.964847 -2.325416 0.895417 0.461677 0.135754 0.000000 0.000000 0.000000 1.918549 -4.383051 -2.213159 0.384233 1.773527 2.554045 2.106073 14.866706 5.384630 0.000000 0.000000 0.000000 1.771345 -4.045972 -2.400747 1.399215 1.525611 -1.076193 -4.644715 0.795351 -1.021846 -0.169917 -14.984211 -49.039754 -179.515335 -86.511873 -178.903951 0.000000 0.000000 0.000000 3.002999 -4.060727 -2.549321 5.388874 17.401362 4.353334 -1.086601 4.979111 -0.666757 -30.731261 -11.823133 43.134772 -179.739734 78.897694 179.377228 0.000000 0.000000 0.000000 
14.155633 38.985107 -4.710484 0.000000 0.000000 0.000000 1.222621 -32.068711 7.310018 -82.602115 -15.820303 50.787275 65.867790 9.576542 -4.965705 40.685671 -1.962721 -4.697155 -1.196565 0.029822 -1.140538 0.000000 0.000000 0.000000 -2.597196 -28.035731 6.854378 10.098627 0.385398 -25.371332 90.269365 19.305386 4.508191 3.602413 4.944744 21.621992 36.483312 -0.055763 -8.427198 0.000000 0.000000 0.000000 -1.607388 -32.299889 6.257734 3.649339 -5.597120 -3.385801 2.415782 -3.900707 -2.500656 0.890735 0.415081 0.150169 0.000000 0.000000 0.000000 1.946136 -4.327044 -2.357417 0.202839 1.585335 3.040441 2.056572 14.894343 5.654134 0.000000 0.000000 0.000000 1.770433 -3.964580 -2.562629 1.343067 1.776651 -0.491049 -4.679037 0.636660 -1.103852 -0.125132 -15.106599 -49.225993 -177.898465 -86.457347 -177.214381 0.000000 0.000000 0.000000 3.002231 -3.993468 -2.734741 5.339438 17.532858 4.986436 -1.180427 4.978535 -0.563689 -29.957835 -10.958599 41.018329 -179.757287 75.194359 179.459546 0.000000 0.000000 0.000000 
14.119101 38.993401 -4.674187 0.000000 0.000000 0.000000 1.317837 -32.037057 7.319556 -82.619819 -15.703377 50.968238 65.875576 9.715224 -5.158374 40.702487 -2.051785 -4.543408 -1.187400 0.047470 -1.154631 0.000000 0.000000 0.000000 -2.492875 -27.998139 6.850486 10.012987 0.357338 -25.203818 90.235296 19.234748 4.447273 3.662747 4.879243 21.616254 36.679885 -0.048389 -8.299204 0.000000 0.000000 0.000000 -1.501618 -32.151770 6.260144 3.559647 -5.475782 -3.601181 2.475405 -3.837746 -2.663664 0.892311 0.369853 0.171821 0.000000 0.000000 0.000000 1.995492 -4.266930 -2.492540 -0.003291 1.394899 3.562590 2.072437 14.940091 5.841139 0.000000 0.000000 0.000000 1.791362 -3.883340 -2.710165 1.273853 2.055892 -0.017358 -4.603207 0.457192 -1.087537 -0.090727 -15.296000 -49.299663 -176.681052 -86.365679 -175.923448 0.000000 0.000000 0.000000 3.032306 -3.923800 -2.904637 5.262261 17.678157 5.762922 -1.237270 4.892138 -0.461832 -29.219259 -10.105144 39.119936 -179.722932 71.967968 179.502972 0.000000 0.000000 0.000000 
